# xmcd
#
# Track frame offsets:
#	150
#	19500
#	39825
#	59925
#	77400
#	98327
#	117827
#	134704
#
# Disc length: 2000 seconds
#
# Revision: 1
# Processed by: cddbd v1.5.1PL0 Copyright (c) Steve Scherf et al.
# Submitted via: audiograbber 1.83.01
#
DISCID=5d07ce08
DTITLE=Party Tyme Karaoke - syb-1804
DYEAR=1900
DGENRE=Country
TTITLE0=Lee Ann Womack - I Hope You Dance
TTITLE1=Shania Twain - Man I Feel Like A Woman
TTITLE2=Faith Hill - Breath
TTITLE3=The Dixie Chicks - Ready To Run
TTITLE4=Trisa Yearwood - How Do I Live
TTITLE5=Jamie O'Neal - There Is No Arizona
TTITLE6=Shania Twain - You're Still The One
TTITLE7=Trick Pony - Pour Me
EXTD=
EXTT0=
EXTT1=
EXTT2=
EXTT3=
EXTT4=
EXTT5=
EXTT6=
EXTT7=
PLAYORDER=
